<svg width="54" height="34" viewBox="0 0 54 34" fill="none" xmlns="http://www.w3.org/2000/svg">
<path d="M5.91427 33.991C5.72734 33.9913 5.55721 33.9865 5.38749 33.9926C4.93983 34.0088 4.62715 33.8131 4.40684 33.4237C3.64962 32.0854 2.88598 30.7506 2.11787 29.4185C1.47674 28.3066 0.830936 27.1972 0.176733 26.093C-0.0579392 25.6969 -0.0583737 25.326 0.172244 24.9281C1.59847 22.4678 3.01873 20.004 4.43853 17.5399C4.64426 17.1829 4.93996 17.0146 5.35547 17.0155C8.31244 17.0214 11.2694 17.0204 14.2264 17.0217C14.2941 17.0217 14.3618 17.0217 14.4599 17.0217C14.4307 16.9556 14.4136 16.9054 14.3879 16.8602C13.4812 15.2695 12.5768 13.6775 11.6653 12.0896C11.0938 11.0941 10.5151 10.1028 9.93224 9.11389C9.7206 8.75481 9.70267 8.41388 9.91699 8.04562C11.3614 5.56372 12.7988 3.07773 14.2401 0.594022C14.3445 0.414169 14.4618 0.241823 14.5918 0.0364235C17.8401 5.66179 21.0737 11.2615 24.3197 16.8828C27.6741 11.3008 30.8755 5.65478 34.1276 0C40.6671 11.3259 47.1888 22.6211 53.7284 33.9473C53.4624 33.96 53.2281 33.9805 52.9937 33.9809C51.334 33.9838 49.6743 33.9814 48.0145 33.983C46.8476 33.9841 45.6806 33.9808 44.5139 33.9957C44.0642 34.0015 43.7555 33.8258 43.532 33.4357C42.1494 31.023 40.7589 28.6148 39.37 26.2058C37.6681 23.254 35.9652 20.3028 34.2625 17.3515C34.2401 17.3127 34.2146 17.2758 34.1768 17.2162C34.1193 17.3145 34.0697 17.3981 34.0211 17.4824C32.4962 20.1245 30.9726 22.7674 29.4433 25.4069C29.3631 25.5453 29.3742 25.6424 29.4505 25.7742C30.9961 28.4421 32.537 31.1127 34.0788 33.7829C34.1121 33.8406 34.1433 33.8997 34.191 33.9863C34.1007 33.9863 34.036 33.9862 33.9713 33.9863C31.0258 33.9885 28.0802 33.9823 25.1347 33.9999C24.5364 34.0035 24.1475 33.7635 23.8588 33.2547C22.7827 31.3586 21.6937 29.4697 20.6046 27.5809C18.753 24.3699 16.898 21.1608 15.0433 17.9516C14.8938 17.693 14.735 17.4397 14.568 17.1631C14.2939 17.6357 14.0318 18.0889 13.7685 18.5412C12.551 20.6322 11.3368 22.7251 10.1129 24.8124C9.83926 25.279 9.83621 25.716 10.11 26.1849C11.4896 28.5475 12.86 30.9155 14.2318 33.2827C14.3473 33.482 14.4494 33.6891 14.5805 33.9353C14.2931 33.9523 14.0377 33.98 13.7822 33.9806C11.1652 33.9866 8.54825 33.9882 5.91427 33.991Z" fill="#0048BE"/>
</svg>
