<svg width="54" height="54" viewBox="0 0 54 54" fill="none" xmlns="http://www.w3.org/2000/svg">
<mask id="mask0_569_2711" style="mask-type:alpha" maskUnits="userSpaceOnUse" x="0" y="0" width="54" height="54">
<rect width="54" height="54" fill="#D9D9D9"/>
</mask>
<g mask="url(#mask0_569_2711)">
<path d="M6.75 17.325L23.2839 28.8987C24.6229 29.8361 25.2923 30.3046 26.0205 30.4861C26.6636 30.6465 27.3364 30.6465 27.9795 30.4861C28.7077 30.3046 29.3771 29.8361 30.7161 28.8987L47.25 17.325M16.47 43.65H37.53C40.9324 43.65 42.6334 43.65 43.933 42.9878C45.0762 42.4054 46.0054 41.4762 46.5878 40.333C47.25 39.0334 47.25 37.3324 47.25 33.93V20.97C47.25 17.5677 47.25 15.8665 46.5878 14.567C46.0054 13.4239 45.0762 12.4946 43.933 11.9121C42.6334 11.25 40.9324 11.25 37.53 11.25H16.47C13.0677 11.25 11.3665 11.25 10.067 11.9121C8.92392 12.4946 7.99457 13.4239 7.41213 14.567C6.75 15.8665 6.75 17.5677 6.75 20.97V33.93C6.75 37.3324 6.75 39.0334 7.41213 40.333C7.99457 41.4762 8.92392 42.4054 10.067 42.9878C11.3665 43.65 13.0677 43.65 16.47 43.65Z" stroke="white" stroke-width="2.4" stroke-linecap="round" stroke-linejoin="round"/>
</g>
</svg>
