<svg width="2182" height="537" viewBox="0 0 2182 537" fill="none" xmlns="http://www.w3.org/2000/svg">
<path d="M6.55078 522.984C52.6173 500.627 367.051 148.484 623.551 244.484C831.051 343.984 872.131 466.835 1034.97 401.751C1238.53 320.396 1170.45 188.116 1096.93 185.011C1023.4 181.906 949.877 255.808 1051.99 419.761C1133.69 550.923 1419.52 468.305 1517.05 401.751C1607.05 340.338 1634.72 180.481 1695.05 82.4802C1763.26 -28.3189 1938.15 3.17934 2174.55 133.979" stroke="#EAEEF0" stroke-width="30"/>
<path d="M6.55078 522.984C52.6173 500.627 367.051 148.484 623.551 244.484C831.051 343.984 872.131 466.835 1034.97 401.751C1238.53 320.396 1170.45 188.116 1096.93 185.011C1023.4 181.906 949.877 255.808 1051.99 419.761C1133.69 550.923 1419.52 468.305 1517.05 401.751C1607.05 340.338 1634.72 180.481 1695.05 82.4802C1763.26 -28.3189 1938.15 3.17934 2174.55 133.979" stroke="url(#paint0_linear_548_8229)" stroke-width="4" stroke-dasharray="20 30"/>
<defs>
<linearGradient id="paint0_linear_548_8229" x1="-522.949" y1="247.984" x2="2174.55" y2="268.984" gradientUnits="userSpaceOnUse">
<stop stop-color="#0258E5"/>
<stop offset="0.647104" stop-color="#E4E4E4"/>
</linearGradient>
</defs>
</svg>
