<svg width="24" height="24" viewBox="0 0 24 24" fill="none" xmlns="http://www.w3.org/2000/svg">
<mask id="mask0_535_3974" style="mask-type:alpha" maskUnits="userSpaceOnUse" x="0" y="0" width="24" height="24">
<rect width="24" height="24" fill="#D9D9D9"/>
</mask>
<g mask="url(#mask0_535_3974)">
<path d="M8.24638 3.06201C7.29353 3.10699 6.64273 3.25961 6.07403 3.48245C5.48532 3.71195 4.98627 4.01953 4.48983 4.51801C3.9928 5.01678 3.68756 5.51671 3.4598 6.10601C3.23928 6.67616 3.08985 7.32728 3.04777 8.28071C3.006 9.23591 2.99642 9.54056 3.00107 11.9723C3.00571 14.4038 3.01644 14.7091 3.06199 15.6645C3.10754 16.6171 3.2596 17.2676 3.48243 17.8366C3.71223 18.4254 4.01949 18.9241 4.51825 19.4209C5.01673 19.9176 5.51695 20.2226 6.10653 20.4506C6.6761 20.6709 7.32748 20.8209 8.28063 20.8626C9.2358 20.9047 9.54074 20.914 11.9719 20.9094C14.4042 20.9047 14.7092 20.894 15.6644 20.8487C16.6172 20.8032 17.2674 20.6505 17.8367 20.4283C18.4254 20.1979 18.9245 19.8912 19.4209 19.3924C19.9174 18.894 20.2226 18.3937 20.4504 17.8041C20.6709 17.2346 20.8209 16.5832 20.8624 15.6306C20.9042 14.6748 20.914 14.3696 20.9094 11.9381C20.9048 9.50632 20.8937 9.20166 20.8485 8.24677C20.8032 7.29333 20.6506 6.64309 20.428 6.07381C20.198 5.48509 19.891 4.9866 19.3925 4.48957C18.894 3.99312 18.3938 3.68729 17.8042 3.46011C17.2344 3.23959 16.5833 3.08929 15.6301 3.04808C14.6749 3.00572 14.37 2.99644 11.938 3.00108C9.50651 3.00572 9.20157 3.01617 8.24638 3.06201ZM8.35085 19.2508C7.47778 19.2128 7.00368 19.0678 6.68771 18.9462C6.26931 18.7843 5.97075 18.5902 5.65652 18.2783C5.34287 17.9652 5.14817 17.6675 4.98482 17.2499C4.86208 16.934 4.7144 16.4604 4.67349 15.5874C4.62909 14.6435 4.61894 14.3603 4.61459 11.9691C4.60995 9.57858 4.61864 9.29538 4.65985 8.35065C4.69727 7.47815 4.84323 7.00346 4.96451 6.68777C5.1264 6.26879 5.31993 5.9708 5.63243 5.65657C5.9455 5.34233 6.24319 5.14822 6.66101 4.98486C6.97669 4.86154 7.45022 4.71501 8.32299 4.67353C9.26743 4.62884 9.55032 4.61927 11.9409 4.61463C14.332 4.60998 14.6152 4.6184 15.5599 4.65989C16.4324 4.6979 16.9071 4.8424 17.2225 4.96455C17.6411 5.12645 17.9397 5.31941 18.2537 5.63249C18.5676 5.94556 18.7623 6.24268 18.9256 6.66137C19.049 6.97618 19.1955 7.45029 19.2367 8.32279C19.2816 9.26724 19.2918 9.55043 19.2962 11.941C19.3008 14.3322 19.2921 14.6153 19.2506 15.5595C19.2126 16.4326 19.0678 16.907 18.946 17.2232C18.7841 17.6414 18.5905 17.9399 18.2777 18.2542C17.965 18.5672 17.6673 18.7625 17.2492 18.9259C16.934 19.0489 16.46 19.1957 15.5878 19.2372C14.6433 19.2816 14.3604 19.2917 11.969 19.2961C9.57846 19.3007 9.29557 19.2918 8.35085 19.2508ZM15.6513 7.16827C15.6525 7.76135 16.1347 8.24155 16.7278 8.24039C17.3211 8.23923 17.8013 7.75728 17.8004 7.16421C17.7993 6.57113 17.3171 6.09064 16.7237 6.0918C16.1304 6.09296 15.6501 6.57519 15.6513 7.16827ZM7.35709 11.9639C7.36202 14.5036 9.42469 16.5579 11.9638 16.553C14.5032 16.5481 16.5586 14.4859 16.5537 11.9462C16.5487 9.40739 14.4858 7.35193 11.9461 7.35687C9.40698 7.3618 7.35215 9.4248 7.35709 11.9639ZM8.97002 11.9607C8.96712 10.3124 10.3012 8.97332 11.9493 8.97041C13.5976 8.96722 14.937 10.3008 14.9401 11.9494C14.9433 13.5981 13.6092 14.9368 11.9606 14.94C10.3126 14.9432 8.97321 13.6094 8.97002 11.9607Z" fill="#C2C2C2"/>
</g>
</svg>
