<svg width="24" height="24" viewBox="0 0 24 24" fill="none" xmlns="http://www.w3.org/2000/svg">
<mask id="mask0_535_3975" style="mask-type:alpha" maskUnits="userSpaceOnUse" x="0" y="0" width="24" height="24">
<rect width="24" height="24" fill="#D9D9D9"/>
</mask>
<g mask="url(#mask0_535_3975)">
<path d="M6.12454 7.24907C7.29789 7.24907 8.24907 6.29789 8.24907 5.12454C8.24907 3.95119 7.29789 3 6.12454 3C4.95119 3 4 3.95119 4 5.12454C4 6.29789 4.95119 7.24907 6.12454 7.24907Z" fill="#C2C2C2"/>
<path d="M7.89498 8.66913H4.35409C4.15863 8.66913 4 8.82776 4 9.02322V19.6459C4 19.8414 4.15863 20 4.35409 20H7.89498C8.09044 20 8.24907 19.8414 8.24907 19.6459V9.02322C8.24907 8.82776 8.09044 8.66913 7.89498 8.66913Z" fill="#C2C2C2"/>
<path d="M18.4467 8.07954C16.9334 7.56115 15.0404 8.01651 13.9052 8.83304C13.8662 8.68078 13.7274 8.56748 13.5624 8.56748H10.0215C9.82607 8.56748 9.66744 8.72611 9.66744 8.92157V19.5442C9.66744 19.7397 9.82607 19.8983 10.0215 19.8983H13.5624C13.7579 19.8983 13.9165 19.7397 13.9165 19.5442V11.9101C14.4887 11.4172 15.2259 11.26 15.8293 11.5163C16.4143 11.7635 16.7492 12.3669 16.7492 13.1706V19.5442C16.7492 19.7397 16.9079 19.8983 17.1033 19.8983H20.6442C20.8397 19.8983 20.9983 19.7397 20.9983 19.5442V12.4575C20.9579 9.5476 19.589 8.47046 18.4467 8.07954Z" fill="#C2C2C2"/>
</g>
</svg>
