<svg width="54" height="54" viewBox="0 0 54 54" fill="none" xmlns="http://www.w3.org/2000/svg">
<mask id="mask0_569_2708" style="mask-type:alpha" maskUnits="userSpaceOnUse" x="0" y="0" width="54" height="54">
<rect width="54" height="54" fill="#D9D9D9"/>
</mask>
<g mask="url(#mask0_569_2708)">
<path d="M19.5465 21.1874C20.8931 23.9924 22.729 26.6211 25.0539 28.9461C27.3789 31.2711 30.0078 33.107 32.8127 34.4537C33.054 34.5694 33.1745 34.6275 33.3272 34.672C33.8697 34.83 34.5357 34.7165 34.9951 34.3875C35.1245 34.2948 35.235 34.1844 35.4562 33.9632C36.1326 33.2866 36.4708 32.9483 36.811 32.7274C38.0937 31.8934 39.7472 31.8934 41.0299 32.7274C41.3701 32.9483 41.7083 33.2866 42.3847 33.9632L42.7617 34.3401C43.7901 35.3685 44.3042 35.8826 44.5834 36.4349C45.1389 37.5329 45.1389 38.8299 44.5834 39.9282C44.3042 40.4802 43.7901 40.9945 42.7617 42.0227L42.4567 42.3277C41.432 43.3526 40.9196 43.865 40.2229 44.2562C39.4499 44.6904 38.2492 45.0027 37.3627 45C36.5637 44.9977 36.0175 44.8427 34.9254 44.5327C29.056 42.8667 23.5175 39.7236 18.8971 35.1031C14.2765 30.4825 11.1333 24.944 9.46738 19.0746C9.15738 17.9825 9.00238 17.4364 9.00002 16.6374C8.99737 15.7508 9.30958 14.5502 9.74382 13.7771C10.1352 13.0805 10.6475 12.5681 11.6723 11.5433L11.9773 11.2383C13.0056 10.21 13.5198 9.69588 14.072 9.41659C15.1702 8.86114 16.4671 8.86114 17.5652 9.41659C18.1174 9.69588 18.6316 10.21 19.6599 11.2383L20.037 11.6154C20.7134 12.2918 21.0516 12.6301 21.2728 12.9702C22.1067 14.2528 22.1067 15.9064 21.2728 17.189C21.0516 17.5291 20.7134 17.8674 20.037 18.5438C19.8158 18.765 19.7052 18.8756 19.6126 19.0049C19.2837 19.4643 19.1701 20.1304 19.3282 20.6729C19.3727 20.8255 19.4306 20.9461 19.5465 21.1874Z" stroke="white" stroke-width="2.4" stroke-linecap="round" stroke-linejoin="round"/>
</g>
</svg>
