<svg width="150" height="30" viewBox="0 0 150 30" fill="none" xmlns="http://www.w3.org/2000/svg">
<path d="M5.21848 29.9921C5.05353 29.9923 4.90343 29.9881 4.75367 29.9935C4.35867 30.0078 4.08278 29.8351 3.88839 29.4915C3.22025 28.3106 2.54645 27.1329 1.86871 25.9575C1.30301 24.9764 0.733179 23.9976 0.155941 23.0232C-0.0511229 22.6737 -0.0515062 22.3464 0.15198 21.9954C1.41041 19.8245 2.66358 17.6506 3.91635 15.4764C4.09788 15.1614 4.35879 15.0129 4.72542 15.0136C7.33451 15.0189 9.9436 15.018 12.5527 15.0191C12.6125 15.0191 12.6722 15.0191 12.7587 15.0191C12.733 14.9608 12.7179 14.9165 12.6952 14.8766C11.8952 13.4731 11.0972 12.0684 10.2929 10.6673C9.78869 9.78895 9.27802 8.91422 8.76375 8.04167C8.57701 7.72484 8.56118 7.42402 8.75029 7.09908C10.0248 4.90917 11.2931 2.71565 12.5648 0.524137C12.6569 0.365444 12.7604 0.213373 12.8751 0.0321384C15.7413 4.9957 18.5944 9.93665 21.4585 14.8966C24.4183 9.97127 27.2431 4.98952 30.1126 0C35.8827 9.99349 41.6372 19.9598 47.4074 29.9535C47.1727 29.9647 46.966 29.9828 46.7592 29.9832C45.2947 29.9857 43.8302 29.9836 42.3658 29.985C41.3362 29.986 40.3065 29.9831 39.277 29.9962C38.8802 30.0013 38.6078 29.8463 38.4106 29.5021C37.1906 27.3733 35.9638 25.2484 34.7382 23.1228C33.2366 20.5183 31.734 17.9143 30.2316 15.3102C30.2119 15.276 30.1894 15.2433 30.156 15.1908C30.1053 15.2775 30.0615 15.3513 30.0186 15.4256C28.6731 17.7569 27.3288 20.0889 25.9794 22.4179C25.9086 22.54 25.9184 22.6256 25.9858 22.7419C27.3495 25.096 28.7092 27.4524 30.0695 29.8084C30.0989 29.8594 30.1264 29.9115 30.1685 29.9879C30.0889 29.9879 30.0318 29.9879 29.9747 29.9879C27.3757 29.9899 24.7766 29.9844 22.1777 30C21.6498 30.0031 21.3066 29.7914 21.0519 29.3424C20.1024 27.6693 19.1415 26.0027 18.1805 24.3361C16.5468 21.5029 14.91 18.6713 13.2735 15.8397C13.1416 15.6114 13.0015 15.388 12.8541 15.1439C12.6122 15.5609 12.381 15.9608 12.1487 16.3599C11.0745 18.2049 10.003 20.0516 8.92313 21.8933C8.6817 22.305 8.67901 22.6906 8.92057 23.1043C10.1379 25.189 11.3471 27.2784 12.5575 29.3671C12.6594 29.543 12.7495 29.7257 12.8651 29.9429C12.6116 29.9579 12.3862 29.9824 12.1608 29.9829C9.85168 29.9882 7.54257 29.9896 5.21848 29.9921Z" fill="#0258E5"/>
<path d="M66.5991 15.1363C65.9776 16.1907 65.3724 17.2289 64.7517 18.2576C64.694 18.3534 64.5398 18.4416 64.4275 18.4452C63.8494 18.464 63.2702 18.4448 62.6919 18.459C62.4927 18.4639 62.3869 18.3974 62.2837 18.2279C61.3216 16.646 60.349 15.0704 59.379 13.4933C59.3218 13.4003 59.2604 13.3097 59.1608 13.1561C59.1608 15.4066 59.1608 17.5892 59.1608 19.787C57.6113 19.787 56.0924 19.787 54.5508 19.787C54.5508 14.7506 54.5508 9.71185 54.5508 4.65136C54.6347 4.647 54.7225 4.63852 54.8104 4.63846C56.0185 4.6376 57.2267 4.6438 58.4347 4.63239C58.6462 4.6304 58.7518 4.70273 58.8585 4.87944C60.3746 7.39095 61.8993 9.89726 63.4228 12.4043C63.4793 12.4972 63.5441 12.5849 63.6154 12.6905C65.0919 10.1878 66.5699 7.7154 68.006 5.21888C68.2692 4.76131 68.5455 4.60397 69.0646 4.62413C70.2089 4.66859 71.3562 4.63794 72.536 4.63794C72.536 9.69386 72.536 14.7329 72.536 19.7873C71.0252 19.7873 69.5067 19.7873 67.9424 19.7873C67.9424 17.5254 67.9424 15.2685 67.9424 13.0116C67.9175 13.0058 67.8925 13 67.8676 12.9942C67.4488 13.7019 67.03 14.4097 66.5991 15.1363Z" fill="black"/>
<path d="M139.126 4.89535C140.948 7.09531 142.756 9.27825 144.613 11.5212C144.613 9.18466 144.613 6.92822 144.613 4.65471C146.268 4.65471 147.898 4.65471 149.548 4.65471C149.548 9.68772 149.548 14.7272 149.548 19.7861C149.474 19.7912 149.396 19.8011 149.319 19.8012C148.09 19.8021 146.862 19.7979 145.633 19.8062C145.452 19.8074 145.342 19.7496 145.228 19.6109C143.48 17.4906 141.725 15.3755 139.972 13.2595C139.897 13.1694 139.819 13.082 139.699 12.9429C139.699 15.2624 139.699 17.5184 139.699 19.7882C138.041 19.7882 136.412 19.7882 134.766 19.7882C134.766 14.7468 134.766 9.71495 134.766 4.63712C134.851 4.63712 134.947 4.6371 135.042 4.63712C136.23 4.63738 137.418 4.64493 138.606 4.63155C138.835 4.62898 138.996 4.68617 139.126 4.89535Z" fill="black"/>
<path d="M130.266 18.1187C129.064 19.1382 127.699 19.748 126.166 20.0018C124.124 20.3401 122.14 20.1574 120.277 19.2327C117.933 18.0688 116.486 16.1826 116.06 13.5844C115.623 10.9175 116.309 8.56767 118.24 6.64033C119.497 5.38509 121.053 4.6883 122.797 4.42322C124.858 4.10997 126.861 4.30514 128.726 5.29423C131.039 6.52117 132.454 8.4275 132.808 11.0403C133.185 13.8162 132.385 16.2002 130.266 18.1187ZM126.723 15.0928C126.881 14.8957 127.069 14.7155 127.193 14.4987C127.951 13.1696 128.008 11.7735 127.421 10.3876C126.876 9.09957 125.823 8.44346 124.433 8.43806C123.056 8.43271 122.028 9.08224 121.434 10.3364C121.024 11.2029 120.958 12.1313 121.119 13.0677C121.345 14.3754 122.005 15.3826 123.302 15.8166C124.541 16.2312 125.699 16.0257 126.723 15.0928Z" fill="black"/>
<path d="M101.613 19.8023C99.6547 19.8023 97.7272 19.8023 95.7812 19.8023C95.7812 14.745 95.7812 9.70535 95.7812 4.65161C97.4546 4.65161 99.124 4.65161 100.813 4.65161C100.813 8.37322 100.813 12.0858 100.813 15.8308C103.09 15.8308 105.347 15.8308 107.62 15.8308C107.62 17.1593 107.62 18.4555 107.62 19.8023C105.632 19.8023 103.638 19.8023 101.613 19.8023Z" fill="black"/>
<path d="M88.9432 15.8384C90.7699 15.8384 92.5661 15.8384 94.3812 15.8384C94.3812 17.1605 94.3812 18.4645 94.3812 19.7853C90.4398 19.7853 86.5071 19.7853 82.5586 19.7853C82.5586 14.7469 82.5586 9.71461 82.5586 4.66003C84.2181 4.66003 85.8878 4.66003 87.5871 4.66003C87.5871 8.36075 87.5871 12.0803 87.5871 15.8384C88.0479 15.8384 88.4803 15.8384 88.9432 15.8384Z" fill="black"/>
<path d="M75.0234 19.0756C75.0234 14.2562 75.0234 9.46685 75.0234 4.65747C76.7199 4.65747 78.3962 4.65747 80.0852 4.65747C80.0852 9.69939 80.0852 14.7298 80.0852 19.7814C78.4097 19.7814 76.7405 19.7814 75.0234 19.7814C75.0234 19.5624 75.0234 19.3341 75.0234 19.0756Z" fill="black"/>
<path d="M109.02 7.25669C109.02 6.37415 109.02 5.52207 109.02 4.65381C110.713 4.65381 112.393 4.65381 114.089 4.65381C114.089 9.69597 114.089 14.7348 114.089 19.7879C112.408 19.7879 110.738 19.7879 109.02 19.7879C109.02 15.6191 109.02 11.4531 109.02 7.25669Z" fill="black"/>
<path d="M81.2113 28.2149C80.9385 29.2726 80.1363 29.913 79.0728 29.9289C78.3843 29.9393 77.6955 29.9309 76.9844 29.9309C76.9844 28.4758 76.9844 27.041 76.9844 25.5695C77.0879 25.5643 77.1948 25.5509 77.3012 25.5548C78.0589 25.5826 78.8325 25.5272 79.5705 25.6637C80.7915 25.8896 81.4399 26.9632 81.2113 28.2149ZM79.6727 29.2277C80.3172 28.9205 80.6218 28.4024 80.6049 27.6963C80.5888 27.0249 80.277 26.5338 79.654 26.2733C78.9968 25.9985 78.3075 26.1166 77.6275 26.1103C77.6275 27.2209 77.6275 28.2902 77.6275 29.4477C78.3132 29.3784 78.9709 29.312 79.6727 29.2277Z" fill="black"/>
<path d="M110.758 25.5881C111.757 25.7926 112.202 26.3102 112.159 27.2113C112.13 27.8355 111.773 28.2331 111.197 28.4852C111.533 28.9556 111.861 29.4135 112.192 29.8762C111.69 30.0164 111.555 29.9704 111.277 29.5772C111.219 29.4943 111.161 29.4106 111.1 29.3299C110.917 29.0897 110.771 28.7069 110.539 28.6432C110.127 28.5302 109.662 28.6115 109.192 28.6115C109.192 29.0659 109.192 29.4781 109.192 29.9104C108.976 29.9104 108.789 29.9104 108.582 29.9104C108.582 28.4713 108.582 27.0343 108.582 25.5864C109.299 25.5864 110.015 25.5864 110.758 25.5881ZM109.186 27.3311C109.186 27.57 109.186 27.809 109.186 28.0306C109.736 28.0306 110.244 28.071 110.742 28.019C111.219 27.9693 111.506 27.5896 111.533 27.1171C111.555 26.7305 111.316 26.3387 110.941 26.2124C110.372 26.0207 109.787 26.1053 109.186 26.1132C109.186 26.5225 109.186 26.8967 109.186 27.3311Z" fill="black"/>
<path d="M84.8024 27.9784C84.571 27.9784 84.3699 27.9784 84.1493 27.9784C84.1493 28.4523 84.1493 28.9023 84.1493 29.3822C85.0071 29.3822 85.8551 29.3822 86.724 29.3822C86.724 29.5678 86.724 29.7247 86.724 29.907C85.6564 29.907 84.5859 29.907 83.4922 29.907C83.4922 28.4756 83.4922 27.039 83.4922 25.5774C84.5286 25.5774 85.5672 25.5774 86.6208 25.5774C86.6208 25.7465 86.6208 25.9053 86.6208 26.0997C85.7996 26.0997 84.9836 26.0997 84.1491 26.0997C84.1491 26.5552 84.1491 26.9755 84.1491 27.4263C84.8811 27.4263 85.6071 27.4263 86.3569 27.4263C86.3569 27.612 86.3569 27.7685 86.3569 27.9784C85.8584 27.9784 85.3455 27.9784 84.8024 27.9784Z" fill="black"/>
<path d="M117.699 29.3118C117.699 28.0542 117.699 26.8267 117.699 25.5764C118.755 25.5764 119.794 25.5764 120.853 25.5764C120.853 25.7463 120.853 25.9116 120.853 26.0996C120.132 26.0996 119.423 26.1181 118.716 26.0913C118.393 26.079 118.311 26.1877 118.336 26.4872C118.36 26.7878 118.341 27.092 118.341 27.4315C119.091 27.4315 119.816 27.4315 120.556 27.4315C120.556 27.6262 120.556 27.7837 120.556 27.9776C119.822 27.9776 119.098 27.9776 118.357 27.9776C118.357 28.4563 118.357 28.8989 118.357 29.3793C119.211 29.3793 120.058 29.3793 120.92 29.3793C120.92 29.5746 120.92 29.7325 120.92 29.9111C119.857 29.9111 118.798 29.9111 117.699 29.9111C117.699 29.7208 117.699 29.5313 117.699 29.3118Z" fill="black"/>
<path d="M103.012 28.3995C103.012 27.4464 103.012 26.5238 103.012 25.5774C104.058 25.5774 105.085 25.5774 106.135 25.5774C106.135 25.7407 106.135 25.8976 106.135 26.0995C105.852 26.0995 105.573 26.0995 105.294 26.0995C104.827 26.0995 104.36 26.1048 103.894 26.0968C103.714 26.0938 103.636 26.1506 103.641 26.3396C103.65 26.6931 103.643 27.047 103.643 27.4322C104.395 27.4322 105.121 27.4322 105.865 27.4322C105.865 27.6208 105.865 27.7782 105.865 27.968C105.141 27.968 104.415 27.968 103.667 27.968C103.667 28.4502 103.667 28.9008 103.667 29.3835C104.52 29.3835 105.368 29.3835 106.232 29.3835C106.232 29.5726 106.232 29.7302 106.232 29.9099C105.171 29.9099 104.112 29.9099 103.012 29.9099C103.012 29.4167 103.012 28.9233 103.012 28.3995Z" fill="black"/>
<path d="M123.083 27.3313C122.758 26.5983 123.018 25.9291 123.742 25.6589C124.472 25.3864 125.201 25.4568 125.896 25.7872C126.272 25.9662 125.885 26.1639 125.896 26.3362C125.53 26.2388 125.188 26.0989 124.837 26.0699C124.537 26.0451 124.217 26.1171 123.923 26.2034C123.683 26.2738 123.527 26.5072 123.58 26.7484C123.62 26.9291 123.768 27.1578 123.928 27.2261C124.324 27.3955 124.755 27.4823 125.17 27.6087C125.334 27.6586 125.499 27.7121 125.652 27.7873C126.394 28.1521 126.499 29.0997 125.85 29.6162C125.325 30.0342 124.704 30.0386 124.081 29.9609C123.628 29.9042 123.198 29.7609 122.832 29.44C122.912 29.2752 122.985 29.1248 123.066 28.9576C123.599 29.3388 124.17 29.505 124.798 29.4368C124.956 29.4196 125.115 29.3737 125.265 29.3178C125.495 29.232 125.615 29.0568 125.63 28.8071C125.645 28.5449 125.507 28.3696 125.285 28.2894C124.934 28.163 124.571 28.0742 124.213 27.9695C123.794 27.8471 123.368 27.7379 123.083 27.3313Z" fill="black"/>
<path d="M131.839 27.8522C135.46 27.8522 139.051 27.8522 142.664 27.8522C142.664 28.0148 142.664 28.16 142.664 28.3233C138.456 28.3233 134.249 28.3233 130.02 28.3233C130.02 28.1773 130.02 28.0326 130.02 27.8522C130.617 27.8522 131.213 27.8522 131.839 27.8522Z" fill="black"/>
<path d="M97.4358 27.3994C97.1644 26.7882 96.904 26.1975 96.6211 25.5556C96.8414 25.5556 97.0327 25.5325 97.2135 25.5661C97.2931 25.5809 97.3749 25.7002 97.4156 25.7902C97.8703 26.7951 98.3168 27.8036 98.7665 28.8107C98.8071 28.9015 98.8547 28.9892 98.9215 29.1234C99.198 28.52 99.4604 27.9537 99.7172 27.3848C99.9334 26.9058 100.14 26.4227 100.356 25.9435C100.557 25.4987 100.606 25.4788 101.152 25.6048C101.008 25.93 100.867 26.2501 100.724 26.5693C100.253 27.6218 99.77 28.6691 99.3189 29.7301C99.2138 29.9776 99.0507 29.9224 98.8797 29.9312C98.7047 29.9403 98.5672 29.9377 98.4754 29.7196C98.1498 28.9457 97.7922 28.1853 97.4358 27.3994Z" fill="black"/>
<path d="M92.0747 29.5022C92.0792 29.5647 92.0837 29.6273 92.0621 29.7216C91.9272 29.7893 91.8188 29.8553 91.7096 29.8566C90.9607 29.8658 90.2114 29.8514 89.4626 29.8667C89.1875 29.8723 89.119 29.7664 89.1211 29.5099C89.1312 28.3155 89.1238 27.1211 89.1286 25.9266C89.129 25.8089 89.1693 25.6912 89.1912 25.5735C89.2936 25.5687 89.3961 25.5638 89.5299 25.5884C89.5785 25.7359 89.6102 25.8538 89.6106 25.9717C89.6145 27.0003 89.6109 28.0288 89.6158 29.0574C89.6162 29.1602 89.6576 29.2629 89.68 29.3657C89.68 29.3657 89.6827 29.3678 89.6829 29.3789C89.6831 29.39 89.7021 29.4075 89.7021 29.4075L89.7245 29.3957C90.4603 29.3937 91.196 29.3917 91.9614 29.4098C92.019 29.4541 92.0469 29.4781 92.0747 29.5022Z" fill="black"/>
<path d="M115.087 29.671C115.107 29.8587 115.066 29.954 114.877 29.9329C114.758 29.9195 114.635 29.9304 114.492 29.9304C114.492 28.474 114.492 27.0304 114.492 25.5704C114.682 25.5704 114.86 25.5704 115.087 25.5704C115.087 26.9321 115.087 28.2868 115.087 29.671Z" fill="black"/>
<path d="M94.6572 29.9241C94.4685 29.9289 94.3086 29.9289 94.1328 29.9289C94.1328 28.466 94.1328 27.0296 94.1328 25.574C94.3303 25.574 94.5167 25.574 94.7198 25.574C94.7252 25.6763 94.7338 25.7651 94.7339 25.854C94.7348 27.1128 94.7356 28.3716 94.7324 29.6304C94.7322 29.7268 94.7022 29.8231 94.6572 29.9241Z" fill="black"/>
<path d="M63.5927 27.8501C66.9111 27.8501 70.1991 27.8501 73.5064 27.8501C73.5064 28.0181 73.5064 28.1637 73.5064 28.3258C69.2909 28.3258 65.0819 28.3258 60.8516 28.3258C60.8516 28.1732 60.8516 28.0284 60.8516 27.8501C61.7604 27.8501 62.6613 27.8501 63.5927 27.8501ZM68.5585 28.2766C69.3498 28.2766 70.1412 28.2768 70.9326 28.2766C71.7037 28.2764 72.4749 28.2807 73.2458 28.268C73.3192 28.2668 73.3909 28.159 73.4634 28.1008C73.3948 28.0383 73.3303 27.97 73.2554 27.9164C73.2285 27.8971 73.1765 27.913 73.1359 27.913C69.1688 27.913 65.2017 27.9131 61.2347 27.9132C61.1839 27.9132 61.1187 27.8938 61.0855 27.918C61.0181 27.9674 60.9365 28.0342 60.9225 28.106C60.9137 28.1508 61.0077 28.241 61.0734 28.2684C61.1427 28.2974 61.233 28.2766 61.3142 28.2766C63.7086 28.2767 66.1031 28.2766 68.5585 28.2766Z" fill="black"/>
<path d="M89.1656 25.5659C89.1654 25.6913 89.1251 25.8089 89.1246 25.9267C89.1199 27.1211 89.1273 28.3156 89.1172 29.5099C89.115 29.7664 89.1835 29.8724 89.4587 29.8668C90.2074 29.8514 90.9567 29.8658 91.7057 29.8566C91.8149 29.8553 91.9233 29.7894 92.0516 29.7444C92.1263 29.8866 92.0616 29.9355 91.9142 29.9351C90.9733 29.9327 90.0324 29.9339 89.0664 29.9339C89.0577 29.8331 89.044 29.7472 89.044 29.6613C89.0428 28.3852 89.0414 27.1091 89.048 25.8331C89.0484 25.7413 89.1106 25.6499 89.1656 25.5659Z" fill="black"/>
<path d="M89.685 29.3381C89.6616 29.2631 89.6202 29.1604 89.6197 29.0575C89.6149 28.029 89.6185 27.0004 89.6146 25.9719C89.6141 25.8539 89.5824 25.736 89.5586 25.5959C89.5965 25.6579 89.679 25.7417 89.6796 25.8261C89.6883 26.9875 89.6858 28.149 89.685 29.3381Z" fill="black"/>
<path d="M92.085 29.4852C92.0498 29.4783 92.0219 29.4542 91.9922 29.4156C92.0244 29.4235 92.0584 29.4458 92.085 29.4852Z" fill="black"/>
<path d="M89.7121 29.3868C89.7209 29.3954 89.6985 29.4072 89.6985 29.4072C89.6985 29.4072 89.6795 29.3897 89.6797 29.3803C89.6798 29.3708 89.7032 29.3783 89.7121 29.3868Z" fill="black"/>
<path d="M68.5319 28.2773C66.107 28.2773 63.7125 28.2773 61.3181 28.2772C61.2369 28.2772 61.1466 28.2981 61.0773 28.2691C61.0116 28.2416 60.9176 28.1515 60.9264 28.1066C60.9404 28.0349 61.022 27.9681 61.0894 27.9187C61.1226 27.8944 61.1878 27.9138 61.2386 27.9138C65.2056 27.9137 69.1727 27.9137 73.1398 27.9136C73.1804 27.9136 73.2324 27.8978 73.2593 27.9171C73.3342 27.9707 73.3987 28.0389 73.4673 28.1014C73.3948 28.1597 73.3231 28.2675 73.2497 28.2687C72.4788 28.2814 71.7076 28.2771 70.9365 28.2773C70.1451 28.2774 69.3537 28.2773 68.5319 28.2773Z" fill="black"/>
</svg>
